# xmcd
#
# Track frame offsets:
#	150
#	14875
#	29050
#	46515
#	61910
#
# Disc length: 996 seconds
#
# Revision: 1
# Processed by: cddbd v1.4PL0 Copyright (c) Steve Scherf et al.
# Submitted via: audiograbber 1.81.02
#
DISCID=3d03e205
DTITLE=The Neil Scott Johnson Band - 5 Songs
DYEAR=2000
DGENRE=Country
TTITLE0=I Found My Love
TTITLE1=Last Call For Fools In Love
TTITLE2=Mommy's Little Angel
TTITLE3=Julie
TTITLE4=Bound To Be Her Man
EXTD=
EXTT0=
EXTT1=
EXTT2=
EXTT3=
EXTT4=
PLAYORDER=
